<svg xmlns="http://www.w3.org/2000/svg" width="20" height="20" viewBox="0 0 24 24" fill="none" class="size-4 flex-none"><path fill-rule="evenodd" clip-rule="evenodd" d="M10 4C7.79086 4 6 5.79086 6 8C6 10.2091 7.79086 12 10 12C12.2091 12 14 10.2091 14 8C14 5.79086 12.2091 4 10 4ZM16 8C16 9.94452 15.075 11.673 13.641 12.7694C14.6465 13.2142 15.5715 13.8436 16.364 14.636C18.0518 16.3239 19 18.6131 19 21C19 21.5523 18.5523 22 18 22C17.4477 22 17 21.5523 17 21C17 19.1435 16.2625 17.363 14.9497 16.0503C13.637 14.7375 11.8565 14 10 14C8.14348 14 6.36301 14.7375 5.05025 16.0503C3.7375 17.363 3 19.1435 3 21C3 21.5523 2.55228 22 2 22C1.44772 22 1 21.5523 1 21C1 18.6131 1.94821 16.3239 3.63604 14.636C4.4285 13.8436 5.35354 13.2142 6.35901 12.7694C4.92501 11.673 4 9.94452 4 8C4 4.68629 6.68629 2 10 2C13.3137 2 16 4.68629 16 8ZM18.0601 2.84001C17.5851 2.55827 16.9716 2.71496 16.6899 3.18998C16.4081 3.665 16.5648 4.27847 17.0398 4.5602C17.6053 4.89561 18.0795 5.36526 18.4202 5.92756C18.761 6.48987 18.9578 7.12751 18.9934 7.78404C19.029 8.44058 18.9022 9.09577 18.6243 9.69162C18.3463 10.2875 17.9258 10.8056 17.3998 11.2002C17.1481 11.3891 16.9999 11.6855 17 12.0002C17 12.3149 17.1482 12.6113 17.4 12.8001C19.186 14.1396 21 16.9893 21 20.0001C21 20.5524 21.4477 21.0001 22 21.0001C22.5522 21.0001 23 20.5524 23 20.0001C23 16.7785 21.3685 13.7949 19.497 11.9718C19.876 11.5426 20.1929 11.0598 20.4368 10.5371C20.8537 9.64335 21.0439 8.66057 20.9905 7.67577C20.9371 6.69097 20.6418 5.73451 20.1307 4.89105C19.6195 4.04759 18.9084 3.34312 18.0601 2.84001Z" fill="currentColor"></path></svg>