<svg xmlns="http://www.w3.org/2000/svg" width="24" height="24" viewBox="0 0 24 24" fill="none"><path d="M15.6669 3.25C15.6669 2.55964 15.0998 2 14.4002 2H5.53338C4.13423 2 3 3.11929 3 4.5V19.5C3 20.8807 4.13423 22 5.53338 22H14.4002C15.0998 22 15.6669 21.4404 15.6669 20.75C15.6669 20.0596 15.0998 19.5 14.4002 19.5H5.53338V4.5H14.4002C15.0998 4.5 15.6669 3.94036 15.6669 3.25Z" fill="currentColor"></path><path d="M9.33313 12C9.33313 11.3097 9.90024 10.75 10.5998 10.75H17.6232L16.0376 9.18534C15.5429 8.69719 15.5429 7.90573 16.0376 7.41758C16.5322 6.92942 17.3343 6.92942 17.8289 7.41758L21.629 11.1676C22.1237 11.6557 22.1237 12.4472 21.629 12.9353L17.8289 16.6853C17.3343 17.1735 16.5322 17.1735 16.0376 16.6853C15.5429 16.1972 15.5429 15.4057 16.0376 14.9176L17.7274 13.25H10.5998C9.90024 13.25 9.33313 12.6904 9.33313 12Z" fill="currentColor"></path></svg>