<svg width="30" height="30" viewBox="0 0 20 20" fill="none" xmlns="http://www.w3.org/2000/svg" class="size-6 text-purple-40"><g id="icon/Important"><path id="" fill="currentColor" d="M18.3332 10.0001C18.3115 11.5626 17.9317 12.9623 17.1938 14.1993C16.456 15.458 15.4577 16.4562 14.1991 17.1941C12.9621 17.9319 11.5623 18.3117 9.99984 18.3334C8.43734 18.3117 7.0376 17.9319 5.80062 17.1941C4.54194 16.4562 3.54367 15.458 2.80583 14.1993C2.06798 12.9623 1.68821 11.5626 1.6665 10.0001C1.68821 8.43758 2.06798 7.03784 2.80583 5.80086C3.54367 4.54218 4.54194 3.54392 5.80062 2.80607C7.0376 2.06822 8.43734 1.68845 9.99984 1.66675C11.5623 1.68845 12.9621 2.06822 14.1991 2.80607C15.4577 3.54392 16.456 4.54218 17.1938 5.80086C17.9317 7.03784 18.3115 8.43758 18.3332 10.0001ZM9.54411 5.34513L8.33968 7.72143L5.70296 8.11206C5.50765 8.15546 5.36659 8.27482 5.27978 8.47013C5.23638 8.66544 5.29064 8.83906 5.44255 8.99097L7.33057 10.879L6.87484 13.4832C6.85314 13.7002 6.92909 13.8629 7.1027 13.9714C7.27631 14.1233 7.46077 14.145 7.65609 14.0365L9.96728 12.7996L12.3761 14.0365C12.5497 14.145 12.7234 14.1233 12.897 13.9714C13.0706 13.8629 13.1465 13.7002 13.1248 13.4832L12.6691 10.879L14.5897 8.99097C14.7199 8.83906 14.7633 8.66544 14.7199 8.47013C14.6331 8.27482 14.492 8.15546 14.2967 8.11206L11.66 7.72143L10.4556 5.34513C10.3688 5.14982 10.206 5.05216 9.96728 5.05216C9.77197 5.05216 9.63091 5.14982 9.54411 5.34513Z"></path></g></svg>